<svg id="Component_4_148" data-name="Component 4 – 148" xmlns="http://www.w3.org/2000/svg" xmlns:xlink="http://www.w3.org/1999/xlink" width="46.605" height="46.602" viewBox="0 0 46.605 46.602">
  <defs>
    <linearGradient id="linear-gradient" x1="1.109" y1="-0.024" x2="0.385" y2="1.114" gradientUnits="objectBoundingBox">
      <stop offset="0" stop-color="#d15b5b"/>
      <stop offset="1" stop-color="#692e2e"/>
    </linearGradient>
    <linearGradient id="linear-gradient-2" x1="0.46" y1="-0.514" x2="0.552" y2="1" xlink:href="#linear-gradient"/>
  </defs>
  <path id="icons8_instagram_verification_badge" d="M30.432,2.109,24.994,4.9,18.75,1.7,14.943,7.594l-7.006.354-.35,7.008L1.7,18.764l3.2,6.242L1.7,31.25l5.893,3.807.354,7.006,7.008.35L18.764,48.3l6.242-3.2,6.244,3.2,3.807-5.893,7.006-.354.35-7.008L48.3,31.236l-3.2-6.242,3.2-6.244-5.893-3.807-.354-7.006-7.008-.35ZM30.539,4.3l3.383,5.232,6.225.309.314,6.225,5.233,3.381-2.838,5.545L45.7,30.539l-5.232,3.383-.309,6.225-6.225.314-3.381,5.233-5.545-2.838L19.461,45.7l-3.383-5.232-6.225-.309-.314-6.225L4.307,30.551l2.838-5.545L4.3,19.461l5.232-3.383.309-6.225,6.225-.314,3.381-5.232,5.545,2.838Z" transform="translate(-1.697 -1.701)" fill="url(#linear-gradient)"/>
  <g id="Group_131" data-name="Group 131" transform="translate(-6539 2915.996)">
    <g id="Component_1_15" data-name="Component 1 – 15" transform="translate(6547 -2899)">
      <path id="Subtraction_20" data-name="Subtraction 20" d="M20.284,10.142H13.271L10.142,7.012,7.012,10.142H0L10.142,0,20.284,10.142Z" transform="translate(5.218 3.145)" fill="url(#linear-gradient-2)"/>
      <path id="Subtraction_21" data-name="Subtraction 21" d="M10.008,9.756H7.523L0,2.233,2.233,0,11,8.765l-.991.991Z" transform="translate(19.728 3.53)" fill="url(#linear-gradient-2)"/>
      <path id="Subtraction_22" data-name="Subtraction 22" d="M3.456,9.776H1.011L0,8.765,8.765,0,11,2.233,3.456,9.776Z" transform="translate(0 3.51)" fill="url(#linear-gradient-2)"/>
      <rect id="Rectangle_135" data-name="Rectangle 135" width="3.377" height="3.178" transform="translate(18.445 0.014) rotate(45)" fill="url(#linear-gradient-2)"/>
      <rect id="Rectangle_136" data-name="Rectangle 136" width="3.377" height="3.178" transform="translate(14.495 2.248) rotate(135)" fill="url(#linear-gradient-2)"/>
    </g>
  </g>
</svg>
