<svg width="47" height="47" viewBox="0 0 47 47" fill="none" xmlns="http://www.w3.org/2000/svg">
<g clip-path="url(#clip0_1_2)">
<path d="M29.539 0.00300598L28.739 0.415006L23.297 3.20301L17.053 0.00300598L13.246 5.89701L6.24001 6.25101L5.89001 13.259L0.00300598 17.067L3.20301 23.309L0.00300598 29.553L5.89601 33.36L6.25001 40.366L13.258 40.716L17.067 46.603L23.309 43.403L29.553 46.603L33.36 40.71L40.366 40.356L40.716 33.348L46.603 29.539L43.403 23.297L46.603 17.053L40.71 13.246L40.356 6.24001L33.348 5.89001L29.539 0.00300598ZM28.839 2.60801L32.222 7.84001L38.447 8.14901L38.761 14.374L43.994 17.755L41.156 23.3L44.003 28.842L38.771 32.225L38.462 38.45L32.237 38.764L28.856 43.997L23.311 41.159L17.764 44.003L14.381 38.771L8.15601 38.462L7.84201 32.237L2.61001 28.854L5.44801 23.309L2.60301 17.764L7.83501 14.381L8.14401 8.15601L14.369 7.84201L17.75 2.61001L23.295 5.44801L28.839 2.60801ZM30.775 16.77L20.575 26.659L15.843 21.927L13.723 24.045L20.543 30.865L32.866 18.922L30.775 16.77Z" fill="url(#paint0_linear_1_2)"/>
</g>
<defs>
<linearGradient id="paint0_linear_1_2" x1="6.15421" y1="19.109" x2="50.0514" y2="49.5388" gradientUnits="userSpaceOnUse">
<stop stop-color="#ebe8e8"/>
<stop offset="1" stop-color="#ebe8e8"/>
</linearGradient>
<clipPath id="clip0_1_2">
<rect width="46.605" height="46.605" fill="#ebe8e8"/>
</clipPath>
</defs>
</svg>
