<svg xmlns="http://www.w3.org/2000/svg" xmlns:xlink="http://www.w3.org/1999/xlink" width="190" height="190" viewBox="0 0 190 190">
  <defs>
    <style>
      .cls-1 {
        fill: url(#linear-gradient);
      }

      .cls-2 {
        fill: #fff;
      }

      .cls-3 {
        filter: url(#Ellipse_18);
      }
    </style>
    <linearGradient id="linear-gradient" x1="0.5" x2="0.5" y2="1" gradientUnits="objectBoundingBox">
      <stop offset="0" stop-color="#c04848"/>
      <stop offset="1" stop-color="#480048"/>
    </linearGradient>
    <filter id="Ellipse_18" x="0" y="0" width="190" height="190" filterUnits="userSpaceOnUse">
      <feOffset dy="3" input="SourceAlpha"/>
      <feGaussianBlur stdDeviation="3" result="blur"/>
      <feFlood flood-opacity="0.161"/>
      <feComposite operator="in" in2="blur"/>
      <feComposite in="SourceGraphic"/>
    </filter>
  </defs>
  <g id="Group_148" data-name="Group 148" transform="translate(-70 -348)">
    <g class="cls-3" transform="matrix(1, 0, 0, 1, 70, 348)">
      <circle id="Ellipse_18-2" data-name="Ellipse 18" class="cls-1" cx="86" cy="86" r="86" transform="translate(9 6)"/>
    </g>
    <g id="Group_147" data-name="Group 147" transform="translate(-771 -3)">
      <g id="Component_1_19" data-name="Component 1 – 19" transform="translate(877 417)">
        <path id="Subtraction_20" data-name="Subtraction 20" class="cls-1" d="M78.226,39.113H51.182L39.113,27.044,27.044,39.113H0L39.113,0,78.226,39.113Z" transform="translate(20.123 12.128)"/>
        <path id="Subtraction_21" data-name="Subtraction 21" class="cls-1" d="M38.6,37.627H29.013L0,8.614,8.614,0l33.8,33.8L38.6,37.627Z" transform="translate(76.082 13.615)"/>
        <path id="Subtraction_22" data-name="Subtraction 22" class="cls-1" d="M13.328,37.7H3.9L0,33.8,33.8,0l8.614,8.614L13.328,37.7Z" transform="translate(0 13.538)"/>
        <rect id="Rectangle_135" data-name="Rectangle 135" class="cls-1" width="13.024" height="12.258" transform="translate(71.136 0.054) rotate(45)"/>
        <rect id="Rectangle_136" data-name="Rectangle 136" class="cls-1" width="13.024" height="12.258" transform="translate(55.902 8.668) rotate(135)"/>
      </g>
    </g>
    <g id="Group_150" data-name="Group 150" transform="translate(-771 -3)">
      <g id="Component_1_20" data-name="Component 1 – 20" transform="translate(877 417)">
        <path id="Subtraction_20-2" data-name="Subtraction 20" class="cls-2" d="M78.226,39.113H51.182L39.113,27.044,27.044,39.113H0L39.113,0,78.226,39.113Z" transform="translate(20.123 12.128)"/>
        <path id="Subtraction_21-2" data-name="Subtraction 21" class="cls-2" d="M38.6,37.627H29.013L0,8.614,8.614,0l33.8,33.8L38.6,37.627Z" transform="translate(76.082 13.615)"/>
        <path id="Subtraction_22-2" data-name="Subtraction 22" class="cls-2" d="M13.328,37.7H3.9L0,33.8,33.8,0l8.614,8.614L13.328,37.7Z" transform="translate(0 13.538)"/>
        <rect id="Rectangle_135-2" data-name="Rectangle 135" class="cls-2" width="13.024" height="12.258" transform="translate(71.136 0.054) rotate(45)"/>
        <rect id="Rectangle_136-2" data-name="Rectangle 136" class="cls-2" width="13.024" height="12.258" transform="translate(55.902 8.668) rotate(135)"/>
      </g>
    </g>
  </g>
</svg>
