<svg xmlns="http://www.w3.org/2000/svg" width="291.453" height="291.453" viewBox="0 0 291.453 291.453">
  <path id="Icon_metro-qrcode" data-name="Icon metro-qrcode" d="M93.65,20.144H20.786V93.007H93.65ZM111.865,1.928V111.223H2.571V1.928ZM39,38.36H75.434V74.791H39ZM275.808,20.144H202.944V93.007h72.863V20.144ZM294.023,1.928V111.223H184.729V1.928H294.023ZM221.16,38.36h36.432V74.791H221.16ZM93.65,202.3H20.787v72.863H93.65Zm18.216-18.216V293.381H2.571V184.086ZM39,220.518H75.434v36.432H39ZM130.081,1.928H148.3V20.144H130.081ZM148.3,20.144h18.216V38.36H148.3ZM130.081,38.36H148.3V56.575H130.081ZM148.3,56.575h18.216V74.791H148.3ZM130.081,74.791H148.3V93.007H130.081ZM148.3,93.007h18.216v18.216H148.3Zm-18.216,18.216H148.3v18.216H130.081Zm0,36.432H148.3V165.87H130.081ZM148.3,165.87h18.216v18.216H148.3Zm-18.216,18.216H148.3V202.3H130.081ZM148.3,202.3h18.216v18.216H148.3Zm-18.216,18.216H148.3v18.216H130.081ZM148.3,238.733h18.216v18.216H148.3Zm-18.216,18.216H148.3v18.216H130.081ZM148.3,275.165h18.216v18.216H148.3Zm127.511-127.51h18.216V165.87H275.808Zm-255.021,0H39V165.87H20.787ZM39,129.439H57.218v18.216H39Zm-36.432,0H20.787v18.216H2.571Zm72.863,0H93.65v18.216H75.434ZM93.65,147.654h18.216V165.87H93.65Zm18.216-18.216h18.216v18.216H111.865Zm54.647,18.216h18.216V165.87H166.513Zm18.216-18.216h18.216v18.216H184.729Zm18.216,18.216H221.16V165.87H202.944Zm18.216-18.216h18.216v18.216H221.16Zm18.216,18.216h18.216V165.87H239.376Zm18.216-18.216h18.216v18.216H257.592Zm18.216,54.647h18.216V202.3H275.808Zm-109.295,0h18.216V202.3H166.513Zm18.216-18.216h18.216v18.216H184.729Zm18.216,18.216H221.16V202.3H202.944Zm36.432,0h18.216V202.3H239.376Zm18.216-18.216h18.216v18.216H257.592Zm18.216,54.647h18.216v18.216H275.808Zm-109.295,0h18.216v18.216H166.513ZM184.729,202.3h18.216v18.216H184.729Zm36.432,0h18.216v18.216H221.16Zm18.216,18.216h18.216v18.216H239.376ZM257.592,202.3h18.216v18.216H257.592Zm18.216,54.647h18.216v18.216H275.808Zm-91.079-18.216h18.216v18.216H184.729Zm18.216,18.216H221.16v18.216H202.945Zm18.216-18.216h18.216v18.216H221.16Zm18.216,18.216h18.216v18.216H239.376Zm-54.647,18.216h18.216v18.216H184.729Zm36.432,0h18.216v18.216H221.16Zm36.432,0h18.216v18.216H257.592Z" transform="translate(-2.571 -1.928)"/>
</svg>
